<svg width="914" height="400" fill="none" xmlns="http://www.w3.org/2000/svg"><style>#CL0 {fill: #333;}#CL1 {fill: #5382FF;}@media (prefers-color-scheme: dark) {#CL0 {fill: #CCC;}#CL1 {fill: #5382FF;}}</style><path d="M405.104 210v-8.4l-6.412-11.648h4.9l4.004 7.728 4.2-7.728h4.172l-6.384 11.676V210h-4.48Zm21.093.28c-1.643 0-3.127-.233-4.452-.7-1.307-.485-2.427-1.167-3.36-2.044-.915-.896-1.624-1.979-2.128-3.248-.504-1.269-.756-2.707-.756-4.312 0-1.587.252-3.015.756-4.284.522-1.288 1.241-2.371 2.156-3.248a9.381 9.381 0 0 1 3.304-2.044c1.288-.485 2.697-.728 4.228-.728 1.4 0 2.566.121 3.5.364.933.243 1.633.495 2.1.756l-.616 3.556c-.56-.28-1.232-.523-2.016-.728-.766-.205-1.652-.308-2.66-.308-1.96 0-3.472.569-4.536 1.708-1.064 1.12-1.596 2.772-1.596 4.956 0 4.443 2.081 6.664 6.244 6.664a8.78 8.78 0 0 0 2.296-.28 7.962 7.962 0 0 0 1.904-.84l1.12 3.388c-.486.336-1.186.653-2.1.952-.915.28-2.044.42-3.388.42Z" id="CL1"/><path d="M443.456 210.28c-.765 0-1.493-.065-2.184-.196a16.116 16.116 0 0 1-1.904-.42 11.087 11.087 0 0 1-1.54-.616 7.467 7.467 0 0 1-1.092-.7l.42-2.52c.28.224.635.457 1.064.7.448.243.943.467 1.484.672.542.205 1.13.373 1.764.504a9.82 9.82 0 0 0 1.988.196c1.456 0 2.614-.271 3.472-.812.878-.56 1.316-1.4 1.316-2.52 0-.56-.102-1.017-.308-1.372a2.498 2.498 0 0 0-.896-.924c-.392-.261-.886-.476-1.484-.644a37.84 37.84 0 0 0-2.044-.588 37.408 37.408 0 0 1-2.352-.7 8.671 8.671 0 0 1-2.128-1.036 5.243 5.243 0 0 1-1.512-1.624c-.373-.653-.56-1.484-.56-2.492 0-1.717.598-3.061 1.792-4.032 1.195-.989 3.006-1.484 5.432-1.484.766 0 1.447.047 2.044.14.598.075 1.12.177 1.568.308.448.112.84.243 1.176.392.336.149.626.289.868.42l-.336 2.548c-.653-.429-1.428-.775-2.324-1.036-.896-.261-1.894-.392-2.996-.392-.858 0-1.586.075-2.184.224-.578.131-1.054.327-1.428.588a2.4 2.4 0 0 0-.784.952 3.372 3.372 0 0 0-.224 1.26c0 .56.122 1.027.364 1.4.262.373.598.691 1.008.952.43.243.915.448 1.456.616.542.168 1.111.317 1.708.448.784.205 1.587.429 2.408.672a7.67 7.67 0 0 1 2.212.98 5.075 5.075 0 0 1 1.596 1.68c.43.672.644 1.549.644 2.632 0 1.064-.214 1.969-.644 2.716a5.235 5.235 0 0 1-1.652 1.792c-.69.467-1.493.803-2.408 1.008-.896.205-1.829.308-2.8.308Zm17.801-.672c-.299.187-.728.345-1.288.476a7.238 7.238 0 0 1-1.652.196c-.71 0-1.316-.103-1.82-.308-.504-.205-.915-.476-1.232-.812a3.444 3.444 0 0 1-.7-1.176 4.292 4.292 0 0 1-.224-1.372v-9.044h-1.736v-2.1h1.736v-3.052h2.492v3.052h4.2v2.1h-4.2v8.736c0 .616.149 1.064.448 1.344.317.28.774.42 1.372.42.373 0 .746-.047 1.12-.14a4.556 4.556 0 0 0 1.064-.448l.42 2.128Zm6.604-1.54c.522 0 .998-.075 1.428-.224.448-.149.84-.345 1.176-.588.354-.243.662-.504.924-.784.28-.28.513-.56.7-.84v-2.408h-1.904c-1.755 0-2.987.233-3.696.7-.71.448-1.064 1.092-1.064 1.932 0 .653.196 1.185.588 1.596.392.411 1.008.616 1.848.616Zm4.368-.476a8.335 8.335 0 0 1-.756.98c-.28.317-.626.607-1.036.868-.392.243-.85.439-1.372.588a5.656 5.656 0 0 1-1.736.252c-1.307 0-2.362-.364-3.164-1.092-.803-.747-1.204-1.811-1.204-3.192 0-3.155 2.333-4.732 7-4.732h2.128v-1.092c0-1.008-.271-1.727-.812-2.156-.523-.429-1.4-.644-2.632-.644-.952 0-1.802.121-2.548.364-.728.243-1.363.523-1.904.84l-.588-2.044c.504-.317 1.204-.616 2.1-.896.896-.299 1.932-.448 3.108-.448 1.866 0 3.285.383 4.256 1.148.989.765 1.484 1.941 1.484 3.528v8.372c.018.205.028.42.028.644.018.224.037.439.056.644.018.187.037.345.056.476h-2.268a47.474 47.474 0 0 1-.14-1.092 16.377 16.377 0 0 1-.056-1.26v-.056Zm13.392 2.016c-.299.187-.728.345-1.288.476a7.238 7.238 0 0 1-1.652.196c-.709 0-1.316-.103-1.82-.308-.504-.205-.915-.476-1.232-.812a3.46 3.46 0 0 1-.7-1.176 4.32 4.32 0 0 1-.224-1.372v-9.044h-1.736v-2.1h1.736v-3.052h2.492v3.052h4.2v2.1h-4.2v8.736c0 .616.149 1.064.448 1.344.317.28.775.42 1.372.42.373 0 .747-.047 1.12-.14a4.538 4.538 0 0 0 1.064-.448l.42 2.128Zm11.952-2.212c-.392.821-.998 1.512-1.82 2.072-.802.541-1.857.812-3.164.812-1.344 0-2.436-.373-3.276-1.12-.821-.765-1.232-1.941-1.232-3.528v-10.164h2.492v10.164c0 .485.066.887.196 1.204.15.299.346.541.588.728.243.187.523.317.84.392.336.075.7.112 1.092.112 1.083 0 1.951-.243 2.604-.728.654-.485 1.214-1.148 1.68-1.988v-9.884h2.464V210h-2.156l-.252-2.604h-.056Zm10.87 2.884c-1.326 0-2.427-.121-3.304-.364-.878-.261-1.606-.579-2.184-.952l.588-2.156c.522.373 1.204.7 2.044.98.84.28 1.82.42 2.94.42.914 0 1.68-.177 2.296-.532.616-.355.924-.933.924-1.736 0-.429-.094-.765-.28-1.008a1.7 1.7 0 0 0-.728-.616 3.426 3.426 0 0 0-1.092-.364c-.43-.093-.887-.187-1.372-.28a31.478 31.478 0 0 1-1.792-.448 6.49 6.49 0 0 1-1.624-.756 3.917 3.917 0 0 1-1.148-1.204c-.299-.485-.448-1.101-.448-1.848 0-1.307.494-2.333 1.484-3.08 1.008-.765 2.408-1.148 4.2-1.148 1.008 0 1.885.093 2.632.28a9.728 9.728 0 0 1 2.044.728l-.588 2.1a10.25 10.25 0 0 0-.896-.448 4.616 4.616 0 0 0-.896-.308 5.7 5.7 0 0 0-1.064-.196 8.562 8.562 0 0 0-1.26-.084c-1.008 0-1.802.159-2.38.476-.56.299-.84.84-.84 1.624 0 .317.074.588.224.812.149.205.354.383.616.532.28.149.606.28.98.392l1.288.308c.634.131 1.269.28 1.904.448a5.556 5.556 0 0 1 1.736.7c.522.299.942.709 1.26 1.232.336.523.504 1.223.504 2.1 0 .84-.178 1.54-.532 2.1a4.109 4.109 0 0 1-1.344 1.372 5.374 5.374 0 0 1-1.848.7 9.42 9.42 0 0 1-2.044.224Z" id="CL0"/></svg>